<mxfile host="65bd71144e">
    <diagram id="FzVnP6O4pqSFIcXxLjdl" name="Page-1">
        <mxGraphModel dx="893" dy="680" grid="1" gridSize="10" guides="1" tooltips="1" connect="1" arrows="1" fold="1" page="1" pageScale="1" pageWidth="1169" pageHeight="827" math="0" shadow="0">
            <root>
                <mxCell id="0"/>
                <mxCell id="1" parent="0"/>
                <mxCell id="3" value="" style="shape=table;html=1;whiteSpace=wrap;startSize=0;container=1;collapsible=0;childLayout=tableLayout;" parent="1" vertex="1">
                    <mxGeometry x="110" y="130" width="240" height="220" as="geometry"/>
                </mxCell>
                <mxCell id="4" value="" style="shape=partialRectangle;html=1;whiteSpace=wrap;collapsible=0;dropTarget=0;pointerEvents=0;fillColor=none;top=0;left=0;bottom=0;right=0;points=[[0,0.5],[1,0.5]];portConstraint=eastwest;" parent="3" vertex="1">
                    <mxGeometry width="240" height="73" as="geometry"/>
                </mxCell>
                <mxCell id="5" value="00" style="shape=partialRectangle;html=1;whiteSpace=wrap;connectable=0;fillColor=none;top=0;left=0;bottom=0;right=0;overflow=hidden;pointerEvents=1;" parent="4" vertex="1">
                    <mxGeometry width="80" height="73" as="geometry">
                        <mxRectangle width="80" height="73" as="alternateBounds"/>
                    </mxGeometry>
                </mxCell>
                <mxCell id="6" value="01" style="shape=partialRectangle;html=1;whiteSpace=wrap;connectable=0;fillColor=none;top=0;left=0;bottom=0;right=0;overflow=hidden;pointerEvents=1;" parent="4" vertex="1">
                    <mxGeometry x="80" width="80" height="73" as="geometry">
                        <mxRectangle width="80" height="73" as="alternateBounds"/>
                    </mxGeometry>
                </mxCell>
                <mxCell id="7" value="02" style="shape=partialRectangle;html=1;whiteSpace=wrap;connectable=0;fillColor=none;top=0;left=0;bottom=0;right=0;overflow=hidden;pointerEvents=1;" parent="4" vertex="1">
                    <mxGeometry x="160" width="80" height="73" as="geometry">
                        <mxRectangle width="80" height="73" as="alternateBounds"/>
                    </mxGeometry>
                </mxCell>
                <mxCell id="8" value="" style="shape=partialRectangle;html=1;whiteSpace=wrap;collapsible=0;dropTarget=0;pointerEvents=0;fillColor=none;top=0;left=0;bottom=0;right=0;points=[[0,0.5],[1,0.5]];portConstraint=eastwest;" parent="3" vertex="1">
                    <mxGeometry y="73" width="240" height="74" as="geometry"/>
                </mxCell>
                <mxCell id="9" value="10" style="shape=partialRectangle;html=1;whiteSpace=wrap;connectable=0;fillColor=none;top=0;left=0;bottom=0;right=0;overflow=hidden;pointerEvents=1;" parent="8" vertex="1">
                    <mxGeometry width="80" height="74" as="geometry">
                        <mxRectangle width="80" height="74" as="alternateBounds"/>
                    </mxGeometry>
                </mxCell>
                <mxCell id="10" value="11" style="shape=partialRectangle;html=1;whiteSpace=wrap;connectable=0;fillColor=none;top=0;left=0;bottom=0;right=0;overflow=hidden;pointerEvents=1;" parent="8" vertex="1">
                    <mxGeometry x="80" width="80" height="74" as="geometry">
                        <mxRectangle width="80" height="74" as="alternateBounds"/>
                    </mxGeometry>
                </mxCell>
                <mxCell id="11" value="12" style="shape=partialRectangle;html=1;whiteSpace=wrap;connectable=0;fillColor=none;top=0;left=0;bottom=0;right=0;overflow=hidden;pointerEvents=1;" parent="8" vertex="1">
                    <mxGeometry x="160" width="80" height="74" as="geometry">
                        <mxRectangle width="80" height="74" as="alternateBounds"/>
                    </mxGeometry>
                </mxCell>
                <mxCell id="12" value="" style="shape=partialRectangle;html=1;whiteSpace=wrap;collapsible=0;dropTarget=0;pointerEvents=0;fillColor=none;top=0;left=0;bottom=0;right=0;points=[[0,0.5],[1,0.5]];portConstraint=eastwest;" parent="3" vertex="1">
                    <mxGeometry y="147" width="240" height="73" as="geometry"/>
                </mxCell>
                <mxCell id="13" value="20" style="shape=partialRectangle;html=1;whiteSpace=wrap;connectable=0;fillColor=none;top=0;left=0;bottom=0;right=0;overflow=hidden;pointerEvents=1;" parent="12" vertex="1">
                    <mxGeometry width="80" height="73" as="geometry">
                        <mxRectangle width="80" height="73" as="alternateBounds"/>
                    </mxGeometry>
                </mxCell>
                <mxCell id="14" value="21" style="shape=partialRectangle;html=1;whiteSpace=wrap;connectable=0;fillColor=none;top=0;left=0;bottom=0;right=0;overflow=hidden;pointerEvents=1;" parent="12" vertex="1">
                    <mxGeometry x="80" width="80" height="73" as="geometry">
                        <mxRectangle width="80" height="73" as="alternateBounds"/>
                    </mxGeometry>
                </mxCell>
                <mxCell id="15" value="22" style="shape=partialRectangle;html=1;whiteSpace=wrap;connectable=0;fillColor=none;top=0;left=0;bottom=0;right=0;overflow=hidden;pointerEvents=1;" parent="12" vertex="1">
                    <mxGeometry x="160" width="80" height="73" as="geometry">
                        <mxRectangle width="80" height="73" as="alternateBounds"/>
                    </mxGeometry>
                </mxCell>
            </root>
        </mxGraphModel>
    </diagram>
</mxfile>